#Comment line ignore any data following # character 
#Hierarchical Translation and Rotation (.htr) file 
[Header]	
#Header keywords are followed by a single value 
FileType HTR		#Single word string
DataType HTRS		#Translation followed by rotation and scale data
FileVersion 1		#integer
NumSegments 25		#integer
NumFrames 6		#integer
DataFrameRate 30		#integer, data frame rate in this file
EulerRotationOrder ZYX
CalibrationUnits mm
RotationUnits Degrees
GlobalAxisofGravity Y
BoneLengthAxis Y
ScaleFactor 1.00
[SegmentNames&Hierarchy]
#CHILD	PARENT
BN_Tick_Root GLOBAL
BN_Torso BN_Tick_Root
BN_L_Leg_Front01 BN_Torso
BN_L_Leg_Rear01 BN_Torso
BN_MetalTop BN_Torso
BN_Neck BN_Torso
BN_R_Leg_Front01 BN_Torso
BN_R_Leg_Rear01 BN_Torso
BN_Sack BN_Torso
BN_L_Leg_Front02 BN_L_Leg_Front01
BN_L_Leg_Front03 BN_L_Leg_Front02
BN_L_Leg_Rear02 BN_L_Leg_Rear01
BN_L_Leg_Rear03 BN_L_Leg_Rear02
BN_Head BN_Neck
BN_Needle BN_Head
BN_R_Leg_Front02 BN_R_Leg_Front01
BN_R_Leg_Front03 BN_R_Leg_Front02
BN_R_Leg_Rear02 BN_R_Leg_Rear01
BN_R_Leg_Rear03 BN_R_Leg_Rear02
BN_SackDef01 BN_Sack
BN_SackDef02 BN_Sack
BN_SackDef03 BN_Sack
BN_SackDef04 BN_Sack
BN_SackDef05 BN_Sack
BN_SackDef06 BN_Sack
[BasePosition]
#SegmentName Tx, Ty, Tz, Rx, Ry, Rz, BoneLength
BN_Tick_Root 0.000000 0.000000 0.000000 -90.000000 0.000000 0.000000 10.000000 
BN_Torso 0.000000 0.000000 0.000000 0.000000 0.000000 0.000000 10.000000 
BN_L_Leg_Front01 0.000000 0.000000 0.000000 0.000000 0.000000 0.000000 10.000000 
BN_L_Leg_Rear01 0.000000 0.000000 0.000000 0.000000 0.000000 0.000000 10.000000 
BN_MetalTop 0.000000 0.000000 0.000000 0.000000 0.000000 0.000000 10.000000 
BN_Neck 0.000000 0.000000 0.000000 0.000000 0.000000 0.000000 10.000000 
BN_R_Leg_Front01 0.000000 0.000000 0.000000 0.000000 0.000000 0.000000 10.000000 
BN_R_Leg_Rear01 0.000000 0.000000 0.000000 0.000000 0.000000 0.000000 10.000000 
BN_Sack 0.000000 0.000000 0.000000 0.000000 0.000000 0.000000 10.000000 
BN_L_Leg_Front02 0.000000 0.000000 0.000000 0.000000 0.000000 0.000000 10.000000 
BN_L_Leg_Front03 0.000000 0.000000 0.000000 0.000000 0.000000 0.000000 10.000000 
BN_L_Leg_Rear02 0.000000 0.000000 0.000000 0.000000 0.000000 0.000000 10.000000 
BN_L_Leg_Rear03 0.000000 0.000000 0.000000 0.000000 0.000000 0.000000 10.000000 
BN_Head 0.000000 0.000000 0.000000 0.000000 0.000000 0.000000 10.000000 
BN_Needle 0.000000 0.000000 0.000000 0.000000 0.000000 0.000000 10.000000 
BN_R_Leg_Front02 0.000000 0.000000 0.000000 0.000000 0.000000 0.000000 10.000000 
BN_R_Leg_Front03 0.000000 0.000000 0.000000 0.000000 0.000000 0.000000 10.000000 
BN_R_Leg_Rear02 0.000000 0.000000 0.000000 0.000000 0.000000 0.000000 10.000000 
BN_R_Leg_Rear03 0.000000 0.000000 0.000000 0.000000 0.000000 0.000000 10.000000 
BN_SackDef01 0.000000 0.000000 0.000000 0.000000 0.000000 0.000000 10.000000 
BN_SackDef02 0.000000 0.000000 0.000000 0.000000 0.000000 0.000000 10.000000 
BN_SackDef03 0.000000 0.000000 0.000000 0.000000 0.000000 0.000000 10.000000 
BN_SackDef04 0.000000 0.000000 0.000000 0.000000 0.000000 0.000000 10.000000 
BN_SackDef05 0.000000 0.000000 0.000000 0.000000 0.000000 0.000000 10.000000 
BN_SackDef06 0.000000 0.000000 0.000000 0.000000 0.000000 0.000000 10.000000 
#Beginning of Data. Separated by tabs
#Fr	Tx	Ty	Tz	Rx	Ry	Rz	SF
[BN_Tick_Root]
46 0.000000 0.000000 0.000000 0.000000 0.000000 -0.000020 0.000000
47 0.000000 0.000000 0.000000 0.000000 0.000000 -0.000020 0.000000
48 0.000000 0.000000 0.000000 0.000000 0.000000 -0.000020 0.000000
49 0.000000 0.000000 0.000000 0.000000 0.000000 -0.000020 0.000000
50 0.000000 0.000000 0.000000 0.000000 0.000000 -0.000020 0.000000
51 0.000000 0.000000 0.000000 0.000000 0.000000 -0.000020 0.000000
[BN_Torso]
46 3.400748 109.076035 174.046539 4.563487 -8.145929 3.244919 205.429672
47 3.400748 109.076035 174.046539 4.566911 -10.078741 4.419906 205.429672
48 3.400748 109.076035 174.046539 4.569571 -11.116302 5.053965 205.429672
49 3.400748 109.076042 174.046539 4.576555 -9.008410 4.140292 205.429672
50 3.400748 109.076042 174.046539 4.598430 -5.093309 2.442966 205.429672
51 3.400737 109.076546 174.046707 4.643750 -2.986232 1.529441 205.430069
[BN_L_Leg_Front01]
46 -68.477791 10.734189 -26.804373 -39.548660 45.366657 171.143539 74.316254
47 -68.477791 10.734189 -26.804373 -39.143593 42.992184 169.808060 74.316254
48 -68.477791 10.734189 -26.804373 -38.888824 41.724117 169.124313 74.316254
49 -68.477791 10.734189 -26.804373 -39.271957 44.336910 170.119675 74.316254
50 -68.477791 10.734189 -26.804373 -39.750950 49.221222 172.161041 74.316254
51 -68.477791 10.734189 -26.804373 -39.799820 51.862202 173.449631 74.316254
[BN_L_Leg_Rear01]
46 -72.133743 -73.994843 -18.268616 61.245262 28.886988 -128.361038 104.939293
47 -72.133743 -73.994843 -18.268616 59.946754 27.180492 -130.790970 104.939293
48 -72.133743 -73.994843 -18.268616 59.301514 26.217007 -132.054947 104.939293
49 -72.133743 -73.994843 -18.268616 60.749180 28.096199 -129.891495 104.939293
50 -72.133743 -73.994843 -18.268616 63.784111 31.316525 -125.564354 104.939293
51 -72.133743 -73.994843 -18.268616 65.631943 32.862942 -123.055664 104.939293
[BN_MetalTop]
46 0.000008 13.737477 26.403606 92.361565 -18.401234 -97.449677 29.763546
47 0.000008 13.737477 26.403606 92.308357 -17.976639 -97.431786 29.763546
48 0.000008 13.737477 26.403606 92.280876 -17.796436 -97.423187 29.763546
49 0.000008 13.737477 26.403606 92.253418 -17.616220 -97.414650 29.763546
50 0.000008 13.737477 26.403606 92.253334 -17.614834 -97.414810 29.763546
51 0.000008 13.737477 26.403606 92.253242 -17.613447 -97.414963 29.763546
[BN_Neck]
46 0.000014 95.233284 10.002091 -89.999672 -65.297531 89.999657 95.757088
47 0.000014 95.233284 10.002091 -89.999672 -65.297531 89.999657 95.757088
48 0.000014 95.233284 10.002091 -89.999672 -65.297531 89.999657 95.757088
49 0.000014 95.233284 10.002091 -89.999672 -65.297531 89.999657 95.757088
50 0.000014 95.233284 10.002091 -89.999672 -65.297531 89.999657 95.757088
51 0.000014 95.233284 10.002091 -89.999672 -65.297531 89.999657 95.757088
[BN_R_Leg_Front01]
46 68.477768 10.734107 -26.804314 35.655304 68.059280 -2.374686 74.316193
47 68.477768 10.734107 -26.804314 33.818130 70.350647 -5.880888 74.316193
48 68.477768 10.734107 -26.804314 32.499763 71.557137 -8.099288 74.316193
49 68.477768 10.734107 -26.804314 34.621357 69.057449 -4.673736 74.316193
50 68.477768 10.734107 -26.804314 36.949543 64.285034 0.083978 74.316193
51 68.477768 10.734107 -26.804314 37.544773 61.676910 1.995367 74.316193
[BN_R_Leg_Rear01]
46 72.133751 -73.994873 -18.268644 -77.960747 49.615978 -71.361877 104.939331
47 72.133751 -73.994873 -18.268644 -80.776299 50.173618 -75.511345 104.939331
48 72.133751 -73.994873 -18.268644 -82.334389 50.389839 -77.768700 104.939331
49 72.133751 -73.994873 -18.268644 -79.180428 49.745735 -73.710602 104.939331
50 72.133751 -73.994873 -18.268644 -73.714691 48.015209 -66.473076 104.939331
51 72.133751 -73.994873 -18.268644 -71.048645 46.772488 -62.807423 104.939331
[BN_Sack]
46 -0.000000 -78.024918 33.657791 91.379875 -11.014523 -97.199577 84.974907
47 -0.000000 -78.024918 33.657791 91.379875 -11.014524 -97.199577 84.974907
48 -0.000000 -78.024918 33.657791 91.379875 -11.014524 -97.199577 84.974907
49 -0.000000 -78.024918 33.657791 91.379875 -11.014524 -97.199577 84.974907
50 -0.000000 -78.024918 33.657791 91.379883 -11.014522 -97.199577 84.974907
51 -0.000000 -78.024918 33.657791 91.379875 -11.014523 -97.199577 84.974907
[BN_L_Leg_Front02]
46 142.805023 -0.000015 -0.000104 -0.257418 0.995461 -159.318527 142.805023
47 142.805023 -0.000015 -0.000104 -0.256684 0.994937 -159.420731 142.805023
48 142.805023 -0.000015 -0.000104 -0.255949 0.994414 -159.522934 142.805023
49 142.805023 -0.000015 -0.000104 -0.254116 0.994884 -159.311783 142.805023
50 142.805023 -0.000015 -0.000104 -0.247247 0.990934 -158.695221 142.805023
51 142.805023 -0.000015 -0.000104 -0.240421 0.986909 -158.078735 142.805023
[BN_L_Leg_Front03]
46 124.143021 -0.000045 0.000007 0.351978 -0.206480 152.757996 124.143021
47 124.143021 -0.000045 0.000007 0.351905 -0.206606 152.798721 124.143021
48 124.143021 -0.000045 0.000007 0.351831 -0.206730 152.839417 124.143021
49 124.143021 -0.000045 0.000007 0.352006 -0.206434 152.742737 124.143021
50 124.143021 -0.000045 0.000007 0.353122 -0.207936 152.449921 124.143021
51 124.143021 -0.000045 0.000007 0.354246 -0.209432 152.157150 124.143021
[BN_L_Leg_Rear02]
46 139.939041 0.000075 -0.000022 0.103521 -0.218810 88.300430 139.939041
47 139.939041 0.000075 -0.000022 0.106666 -0.225965 88.531334 139.939041
48 139.939041 0.000075 -0.000022 0.106420 -0.226081 88.655701 139.939041
49 139.939041 0.000075 -0.000022 0.106870 -0.225868 88.427773 139.939041
50 139.939041 0.000075 -0.000022 0.100741 -0.211480 87.856438 139.939041
51 139.939041 0.000075 -0.000022 0.105010 -0.214565 87.479164 139.939041
[BN_L_Leg_Rear03]
46 142.839615 0.000179 -0.000060 0.000321 -0.002325 -105.717026 142.839615
47 142.839615 0.000179 -0.000060 0.000327 -0.002324 -106.002411 142.839615
48 142.839615 0.000179 -0.000060 0.000330 -0.002324 -106.157135 142.839615
49 142.839615 0.000179 -0.000060 0.000324 -0.002325 -105.872299 142.839615
50 142.839615 0.000179 -0.000060 0.000310 -0.002327 -105.170311 142.839615
51 142.839615 0.000179 -0.000060 0.000300 -0.002328 -104.696121 142.839615
[BN_Head]
46 57.062447 -0.000030 0.000000 -3.713182 11.484385 -16.262388 57.062447
47 57.062447 -0.000030 0.000000 -4.766783 13.490786 -16.302797 57.062447
48 57.062447 -0.000030 0.000000 -5.337725 14.571225 -16.322456 57.062447
49 57.062447 -0.000030 0.000000 -4.555064 12.407374 -16.291353 57.062447
50 57.062447 -0.000030 0.000000 -3.118748 8.386374 -16.217886 57.062447
51 57.062447 -0.000030 0.000000 -2.347148 6.222406 -16.139732 57.062447
[BN_Needle]
46 46.997818 425.919373 -0.000093 0.000003 0.000030 87.896805 428.504517
47 46.997818 425.919373 -0.000092 0.000003 0.000030 87.896805 428.504517
48 46.997814 425.919373 -0.000092 0.000003 0.000030 87.896805 428.504517
49 46.997814 425.919373 -0.000091 0.000003 0.000030 87.896805 428.504517
50 46.997810 425.919373 -0.000091 0.000003 0.000030 87.896805 428.504517
51 46.997726 425.917023 -0.000091 0.000003 0.000030 87.896805 428.502167
[BN_R_Leg_Front02]
46 142.804947 -0.000060 0.000060 0.303900 1.023799 163.018982 142.804947
47 142.804947 -0.000060 0.000060 0.285419 1.010803 161.782623 142.804947
48 142.804947 -0.000060 0.000060 0.275841 1.002000 161.065933 142.804947
49 142.804947 -0.000060 0.000060 0.295337 1.019465 162.523788 142.804947
50 142.804947 -0.000060 0.000060 0.338371 1.050057 165.116943 142.804947
51 142.804947 -0.000060 0.000060 0.349047 1.051271 166.348221 142.804947
[BN_R_Leg_Front03]
46 124.143005 -0.000060 -0.000156 -0.352046 -0.195695 -154.437836 124.143005
47 124.143005 -0.000060 -0.000156 -0.354104 -0.198811 -153.884750 124.143005
48 124.143005 -0.000060 -0.000156 -0.354675 -0.197790 -153.554657 124.143005
49 124.143005 -0.000060 -0.000156 -0.352427 -0.195009 -154.214706 124.143005
50 124.143005 -0.000060 -0.000156 -0.353173 -0.187820 -155.365112 124.143005
51 124.143005 -0.000060 -0.000156 -0.351266 -0.184619 -155.896393 124.143005
[BN_R_Leg_Rear02]
46 139.939011 -0.000149 0.000015 0.001292 -0.255032 -119.160461 139.939011
47 139.939011 -0.000149 0.000015 -0.003580 -0.259274 -118.113823 139.939011
48 139.939011 -0.000149 0.000015 -0.007450 -0.263481 -117.536339 139.939011
49 139.939011 -0.000149 0.000015 -0.001713 -0.248259 -118.586166 139.939011
50 139.939011 -0.000149 0.000015 0.001725 -0.259293 -120.458122 139.939011
51 139.939011 -0.000149 0.000015 0.006342 -0.254956 -121.429848 139.939011
[BN_R_Leg_Rear03]
46 142.839417 0.000075 0.000119 0.002154 -0.000933 136.843094 142.839417
47 142.839417 0.000075 0.000119 0.002161 -0.000917 136.012253 142.839417
48 142.839417 0.000075 0.000119 0.002164 -0.000909 135.553192 142.839417
49 142.839417 0.000075 0.000119 0.002157 -0.000924 136.390747 142.839417
50 142.839417 0.000075 0.000119 0.002146 -0.000952 137.836014 142.839417
51 142.839417 0.000075 0.000119 0.002140 -0.000965 138.571671 142.839417
[BN_SackDef01]
46 268.800995 -4.415503 46.251003 -128.408218 -44.374973 -11.740845 272.786804
47 258.916748 -4.075180 44.535175 -128.408218 -44.374973 -11.740845 262.750580
48 253.147125 -3.876512 43.533627 -128.408218 -44.374973 -11.740845 256.892334
49 250.449783 -3.783646 43.065418 -128.408218 -44.374973 -11.740845 254.153564
50 250.419434 -3.782600 43.060146 -128.408218 -44.374973 -11.740845 254.122757
51 250.389099 -3.781554 43.054878 -128.408218 -44.374973 -11.740845 254.091934
[BN_SackDef02]
46 143.940216 -70.272644 49.637573 32.077126 -27.375721 -88.781525 167.692932
47 141.263489 -66.041618 47.577873 32.077126 -27.375721 -88.781525 163.035339
48 139.701019 -63.571922 46.375614 32.077126 -27.375721 -88.781525 160.338593
49 139.245422 -62.851765 46.025017 32.077126 -27.375721 -88.781525 159.555420
50 138.789810 -62.131634 45.674423 32.077126 -27.375721 -88.781525 158.773758
51 138.789810 -62.131634 45.674423 32.077126 -27.375721 -88.781525 158.773758
[BN_SackDef03]
46 268.800995 -4.415426 -46.251160 18.144459 44.375008 -11.740894 272.786804
47 258.916748 -4.075084 -44.535278 18.144459 44.375008 -11.740894 262.750580
48 253.147064 -3.876455 -43.533699 18.144459 44.375008 -11.740894 256.892273
49 250.449783 -3.783569 -43.065437 18.144459 44.375008 -11.740894 254.153564
50 250.419434 -3.782527 -43.060173 18.144459 44.375008 -11.740894 254.122772
51 250.389099 -3.781485 -43.054909 18.144459 44.375008 -11.740894 254.091949
[BN_SackDef04]
46 143.940216 -70.272552 -49.637558 146.059982 27.375723 -88.781555 167.692886
47 141.263489 -66.041512 -47.577839 146.059982 27.375723 -88.781555 163.035294
48 139.701019 -63.571835 -46.375553 146.059982 27.375723 -88.781555 160.338531
49 139.245422 -62.851673 -46.024986 146.059982 27.375723 -88.781555 159.555374
50 138.789810 -62.131535 -45.674427 146.059982 27.375723 -88.781555 158.773727
51 138.789810 -62.131535 -45.674427 146.059982 27.375723 -88.781555 158.773727
[BN_SackDef05]
46 128.106842 58.040379 -69.308632 0.155741 51.314110 90.605110 156.792007
47 123.264824 51.869690 -66.461899 0.155741 51.314110 90.605110 149.338104
48 120.438454 48.267796 -64.800240 0.155741 51.314110 90.605110 145.031967
49 119.117134 46.583897 -64.023422 0.155741 51.314110 90.605110 143.031281
50 119.102272 46.564957 -64.014679 0.155741 51.314110 90.605110 143.008820
51 119.087402 46.546017 -64.005951 0.155741 51.314110 90.605110 142.986374
[BN_SackDef06]
46 128.106888 58.040455 69.308586 152.058487 -51.314072 90.605019 156.792053
47 123.264862 51.869747 66.461899 152.058487 -51.314072 90.605019 149.338150
48 120.438515 48.267834 64.800255 152.058487 -51.314072 90.605019 145.032043
49 119.117195 46.583939 64.023445 152.058487 -51.314072 90.605019 143.031357
50 119.102325 46.564999 64.014702 152.058487 -51.314072 90.605019 143.008896
51 119.087471 46.546062 64.005966 152.058487 -51.314072 90.605019 142.986450
